<svg width="800" height="600" xmlns="http://www.w3.org/2000/svg">
 <g id="Layer_1">
  <title>Layer 1</title>
  <ellipse ry="40" rx="40" id="svg_1" cy="176.5" cx="253" stroke="#000" fill="#000000"/>
  <ellipse ry="40" rx="40" id="svg_3" cy="175.5" cx="457" stroke="#000" fill="#000000"/>
  <path d="m157,297.5c0,1 0.11586,1.96384 1,5c1.15277,3.95868 3.16797,8.92035 5,13c2.20607,4.91257 4.53987,11.25305 8,17c4.43713,7.36966 8.73038,14.69363 13,21c3.96425,5.85532 10,12 16,18c6,6 13,11 21,16c8,5 17.46529,9.98019 26,14c8.58252,4.04233 18.80963,7.56729 27,10c8.83795,2.62503 16.88382,4.54138 25,6c8.9126,1.60175 18,1 27,1c8,0 18,-1 28,-3c10,-2 23.12866,-3.38962 34,-6c10.15176,-2.43759 21.14343,-5.55786 31,-9c10.16812,-3.55093 18.16824,-7.58481 26,-11c8.19867,-3.5752 15.8176,-7.43863 25,-11c8.84488,-3.43048 17,-8 25,-12c10,-5 18.89349,-11.19669 28,-16c7.91119,-4.17285 14.5929,-8.10626 21,-13c6.74329,-5.15051 11,-11 15,-15c3,-3 5.71411,-6.21167 8,-9c2.68976,-3.28101 4.84723,-5.04132 6,-9c0.88416,-3.03616 1.71411,-5.21167 4,-8c1.79321,-2.18735 4.4588,-3.69345 5,-5c0.38269,-0.92389 1,-1 1,-2l1,0" id="svg_4" stroke="#000" fill="none"/>
 </g>
</svg>